<svg width="69" height="84" viewBox="0 0 69 84" fill="none" xmlns="http://www.w3.org/2000/svg">
<path fill-rule="evenodd" clip-rule="evenodd" d="M-8.00635 81.6263C-8.94385 82.6755 -10.1157 83.2 -11.522 83.2H-16.6782C-18.0845 83.2 -19.2563 82.6755 -20.1938 81.6263C-21.1313 80.5772 -21.6001 79.3263 -21.6001 77.8737V36.7158L-11.2876 5.72634C-10.1938 2.17546 -7.77197 0.400024 -4.02197 0.400024H50.8218C54.5718 0.400024 56.9937 2.17546 58.0874 5.72634L68.3999 36.7158V77.8737C68.3999 79.3263 67.9312 80.5772 66.9937 81.6263C66.0562 82.6755 64.8843 83.2 63.478 83.2H58.3218C56.9155 83.2 55.7437 82.6755 54.8062 81.6263C53.8687 80.5772 53.3999 79.3263 53.3999 77.8737V72.7895H-6.6001V77.8737C-6.6001 79.3263 -7.06885 80.5772 -8.00635 81.6263ZM-14.4001 32.8H53.9999L46.6549 7.60003H-7.05513L-14.4001 32.8ZM50.3999 58C48.4499 58 46.7249 57.325 45.2249 55.975C43.8749 54.625 43.1999 52.9 43.1999 50.8C43.1999 48.7 43.9124 46.975 45.3374 45.625C46.7624 44.275 48.4499 43.6 50.3999 43.6C52.3499 43.6 54.0374 44.275 55.4624 45.625C56.8874 46.975 57.5999 48.7 57.5999 50.8C57.5999 52.9 56.8874 54.625 55.4624 55.975C54.0374 57.325 52.3499 58 50.3999 58ZM-12.3751 55.975C-10.8751 57.325 -9.1501 58 -7.2001 58C-5.2501 58 -3.5626 57.325 -2.1376 55.975C-0.712597 54.625 -9.72748e-05 52.9 -9.72748e-05 50.8C-9.72748e-05 48.7 -0.712597 46.975 -2.1376 45.625C-3.5626 44.275 -5.2501 43.6 -7.2001 43.6C-9.1501 43.6 -10.8376 44.275 -12.2626 45.625C-13.6876 46.975 -14.4001 48.7 -14.4001 50.8C-14.4001 52.9 -13.7251 54.625 -12.3751 55.975Z" fill="white"/>
</svg>
